<svg width="28" height="30" viewBox="0 0 28 30" fill="none" xmlns="http://www.w3.org/2000/svg">
<g filter="url(#filter0_d_1_262)">
<path fill-rule="evenodd" clip-rule="evenodd" d="M15.423 2.00105C15.0474 1.98661 14.6739 2.12156 14.3925 2.37643C14.1684 2.57938 14.0162 2.84619 13.957 3.13824L13.9349 3.30295L13.9299 3.44914L14.3741 9.97348C14.4295 10.8051 15.1615 11.4382 16.0133 11.39L22.6588 10.9567C23.0477 10.9286 23.4041 10.7524 23.6545 10.4668C23.8538 10.2393 23.9737 9.95621 23.9977 9.65855L24 9.4567L23.9904 9.34084C23.3029 5.20162 19.7085 2.12227 15.423 2.00105ZM15.4113 3.44902L15.6287 3.45932C19.0119 3.66443 21.8318 6.0802 22.4854 9.33352L22.5182 9.51352L15.9214 9.94502C15.888 9.94688 15.8537 9.91719 15.8511 9.87814L15.4113 3.44902ZM10.7814 5.84532C11.502 5.74681 12.211 6.12453 12.4978 6.7606C12.5855 6.93485 12.6382 7.12392 12.6533 7.32102L13.0419 12.8095C13.0471 12.8847 13.0827 12.9548 13.1409 13.0042C13.1845 13.0413 13.2381 13.0645 13.298 13.0712L13.3599 13.0724L18.9341 12.7366C19.3867 12.71 19.8305 12.8675 20.1604 13.1719C20.4902 13.4763 20.6768 13.9004 20.6744 14.3912C20.4265 18.0037 17.773 21.0237 14.159 21.8065C10.545 22.5893 6.83611 20.9474 5.05781 17.7848C4.58229 16.9695 4.26178 16.0778 4.1138 15.1749L4.06643 14.8359C4.0253 14.5821 4.00319 14.3257 4 14.0795L4.00311 13.8372C4.0134 10.0655 6.66156 6.80403 10.3881 5.92434L10.6438 5.86807L10.7814 5.84532ZM11.0164 7.27813L10.9322 7.28772L10.7037 7.33933C7.73526 8.05478 5.6062 10.6103 5.48796 13.621L5.4828 13.8661C5.47569 14.0525 5.4825 14.2392 5.50499 14.4378L5.53277 14.6408C5.63212 15.495 5.90795 16.3206 6.34914 17.0772C7.81632 19.6863 10.8667 21.0367 13.839 20.3929C16.8113 19.7491 18.9936 17.2653 19.1958 14.3414C19.1959 14.2974 19.1774 14.2552 19.1446 14.225C19.1228 14.2049 19.0959 14.1912 19.0675 14.1851L19.024 14.1817L13.459 14.5169C12.9894 14.5503 12.5255 14.3992 12.17 14.0971C11.8146 13.7951 11.5968 13.3669 11.5652 12.91L11.177 7.42617C11.1763 7.41708 11.1739 7.40822 11.1568 7.37299C11.1315 7.31695 11.0765 7.28131 11.0164 7.27813Z" fill="#0962E8"/>
</g>
<defs>
<filter id="filter0_d_1_262" x="-2" y="0" width="32" height="32" filterUnits="userSpaceOnUse" color-interpolation-filters="sRGB">
<feFlood flood-opacity="0" result="BackgroundImageFix"/>
<feColorMatrix in="SourceAlpha" type="matrix" values="0 0 0 0 0 0 0 0 0 0 0 0 0 0 0 0 0 0 127 0" result="hardAlpha"/>
<feOffset dy="4"/>
<feGaussianBlur stdDeviation="2"/>
<feComposite in2="hardAlpha" operator="out"/>
<feColorMatrix type="matrix" values="0 0 0 0 0 0 0 0 0 0 0 0 0 0 0 0 0 0 0.25 0"/>
<feBlend mode="normal" in2="BackgroundImageFix" result="effect1_dropShadow_1_262"/>
<feBlend mode="normal" in="SourceGraphic" in2="effect1_dropShadow_1_262" result="shape"/>
</filter>
</defs>
</svg>
